<svg width="40" height="40" viewBox="0 0 40 40" fill="none" xmlns="http://www.w3.org/2000/svg">
<path d="M21.6407 33.7515H9.37455C4.20495 33.7515 -0.000854492 29.5457 -0.000854492 24.3761V9.37541C-0.000854492 4.20581 4.20495 0 9.37455 0H30.6255C35.7951 0 40.0009 4.20581 40.0009 9.37541V12.188C39.9184 14.2612 36.9575 14.2597 36.8757 12.188V9.37541C36.8757 5.92901 34.0719 3.12513 30.6255 3.12513H9.37455C5.92815 3.12513 3.12428 5.92901 3.12428 9.37541V24.3761C3.12428 27.8225 5.92815 30.6263 9.37455 30.6263H21.6407C23.7139 30.7089 23.7124 33.6697 21.6407 33.7515ZM22.1876 16.407C22.1876 15.544 21.488 14.8444 20.625 14.8444H9.37455C7.30134 14.9269 7.3029 17.8877 9.37455 17.9695H20.625C21.488 17.9695 22.1876 17.27 22.1876 16.407ZM18.0468 22.6572C18.0468 21.7942 17.3472 21.0947 16.4842 21.0947H9.37455C7.30134 21.1772 7.3029 24.138 9.37455 24.2198H16.4842C17.3472 24.2198 18.0468 23.5202 18.0468 22.6572ZM33.9151 30.6094L34.2195 30.1511L34.7589 30.26C35.7502 30.4598 36.7687 30.1524 37.4837 29.4374C38.1987 28.7225 38.5062 27.7039 38.3062 26.7126L38.1974 26.1734L38.6557 25.869C40.4378 24.721 40.4374 21.9999 38.6557 20.8522L38.1974 20.5478L38.3062 20.0085C38.5062 19.0173 38.1987 17.9987 37.4837 17.2837C36.7686 16.5687 35.7499 16.2613 34.7588 16.4612L34.2195 16.57L33.9151 16.1118C33.9151 16.1118 33.9151 16.1118 33.9151 16.1117C32.767 14.3296 30.046 14.3301 28.8983 16.1118L28.5939 16.57L28.0546 16.4612C27.0633 16.2613 26.0447 16.5687 25.3298 17.2837C24.6147 17.9987 24.3073 19.0173 24.5072 20.0086L24.6161 20.5478L24.1578 20.8522C22.3757 22.0002 22.3761 24.7214 24.1578 25.869L24.6161 26.1735L24.5072 26.7127C24.3072 27.7039 24.6147 28.7226 25.3297 29.4375C26.0447 30.1525 27.0633 30.4598 28.0545 30.2601L28.5939 30.1512L28.8983 30.6095C29.4578 31.4517 30.3955 31.9547 31.4066 31.9547C32.4177 31.9547 33.3556 31.4517 33.9151 30.6094ZM28.051 27.0725L27.6046 27.1625L27.6946 26.7162C27.9378 25.5109 27.4331 24.2925 26.409 23.6123L26.0296 23.3603L26.409 23.1083C27.4331 22.4281 27.9378 21.2097 27.6946 20.0045L27.6046 19.5581L28.051 19.6482C29.2562 19.8913 30.4746 19.3866 31.1549 18.3624L31.4068 17.9832L31.6587 18.3625C32.339 19.3866 33.5573 19.8912 34.7627 19.6482L35.209 19.5581L35.1189 20.0045C34.8758 21.2097 35.3805 22.4281 36.4046 23.1083L36.7839 23.3603L36.4046 23.6123C35.3805 24.2925 34.8758 25.5109 35.1189 26.7162L35.209 27.1625L34.7626 27.0725C33.5569 26.8296 32.339 27.3342 31.6587 28.3583L31.4068 28.7376L31.1549 28.3583C30.588 27.5049 29.6478 27.0123 28.6526 27.0123C28.4535 27.0123 28.252 27.032 28.051 27.0725ZM32.188 10.1567C32.188 9.29368 31.4885 8.59412 30.6255 8.59412H9.37455C7.30134 8.67663 7.3029 11.6375 9.37455 11.7193H30.6255C31.4885 11.7193 32.188 11.0197 32.188 10.1567ZM35.1877 39.7803C36.1657 39.3573 36.7976 38.3956 36.7976 37.33V34.3765C36.7151 32.3033 33.7543 32.3048 33.6725 34.3765V36.2891L32.3887 35.1035C31.7901 34.5507 30.8671 34.5507 30.2685 35.1035L28.9848 36.2891V34.3766C28.9023 32.3033 25.9414 32.3049 25.8596 34.3766V37.3301C25.8596 38.3956 26.4915 39.3574 27.4695 39.7803C28.4451 40.2022 29.5751 40.0061 30.3513 39.281L31.3286 38.3785L32.3059 39.281C32.8104 39.7522 33.4642 39.9999 34.128 39.9999C34.4856 39.9999 34.8461 39.928 35.1877 39.7803Z" fill="#3454D1"/>
</svg>
