<svg width="40" height="40" viewBox="0 0 40 40" fill="none" xmlns="http://www.w3.org/2000/svg">
<path d="M38.3009 31.6227L33.0105 26.3324L33.3029 24.2863C33.454 23.229 33.1392 22.1598 32.4395 21.353C31.7397 20.5461 30.7257 20.0833 29.6577 20.0833H25.9349C27.6371 18.4937 28.7032 16.2312 28.7032 13.724V11.8411C28.7032 7.10945 29.327 4.92828 29.3319 4.91125C29.4567 4.49781 29.3441 4.04922 29.0387 3.74391C27.8162 2.52148 26.1316 1.84969 24.5066 1.90289C23.3955 0.715547 21.7289 0 20 0C18.2712 0 16.6045 0.715547 15.4935 1.90281C13.8673 1.84914 12.1838 2.52148 10.9614 3.74383C10.656 4.04914 10.542 4.49336 10.6668 4.9068C10.6731 4.9282 11.2968 7.10937 11.2968 11.8411V13.724C11.2968 16.2312 12.3629 18.4938 14.0651 20.0833H10.3424C9.27437 20.0833 8.26047 20.5461 7.5607 21.3529C6.86086 22.1598 6.54609 23.229 6.69711 24.2863L6.98945 26.3324L1.72156 31.6003C0.611406 32.7104 0 34.1864 0 35.7579C0 38.1005 1.89547 40 4.24219 40H35.7253C38.0823 40 40 38.0823 40 35.7247C40 34.1752 39.3966 32.7184 38.3009 31.6227ZM13.0921 4.9975C13.902 4.40969 14.9146 4.13406 15.807 4.28406C16.2494 4.35828 16.6954 4.17367 16.9557 3.8082C17.5894 2.91859 18.7843 2.34375 20 2.34375C21.2158 2.34375 22.4107 2.91859 23.0444 3.8082C23.3047 4.17367 23.7507 4.3582 24.193 4.28406C25.0855 4.13398 26.0981 4.40953 26.908 4.9975C26.7546 5.75984 26.5427 7.10398 26.4326 9.08523L24.5943 7.24688C24.1296 6.78219 23.3836 6.79445 22.9316 7.25227C22.1478 8.03359 21.107 8.46375 20 8.46375C18.8908 8.46375 17.848 8.0318 17.0637 7.2475C16.6037 6.7875 15.8618 6.79086 15.4058 7.24688L13.5674 9.08523C13.4573 7.10398 13.2455 5.75984 13.0921 4.9975ZM13.6406 13.724V12.3265L16.3083 9.65883C17.3852 10.4056 18.6616 10.8075 19.9999 10.8075C21.3382 10.8075 22.6147 10.4055 23.6916 9.65883L26.3592 12.3265V13.724C26.3592 17.2305 23.5064 20.0833 19.9998 20.0833C16.4933 20.0833 13.6406 17.2305 13.6406 13.724ZM4.24219 37.6562C3.195 37.6562 2.34375 36.8098 2.34375 35.7565C2.34375 34.8125 2.71133 33.9252 3.37891 33.2577L7.40383 29.2327L8.60719 37.6562H4.24219ZM30.9827 23.9548L29.0253 37.6562H10.9747L9.01734 23.9548C8.96242 23.5705 9.07687 23.1819 9.33133 22.8887C9.5857 22.5953 9.9543 22.4271 10.3425 22.4271H29.6576C30.0459 22.4271 30.4144 22.5953 30.6688 22.8887C30.9231 23.182 31.0376 23.5705 30.9827 23.9548ZM35.7253 37.6562H31.3928L32.5962 29.2327L36.6436 33.2801C37.2966 33.933 37.6562 34.8013 37.6562 35.7253C37.6562 36.79 36.7901 37.6562 35.7253 37.6562Z" fill="#3454D1"/>
<path d="M20 26.3594C17.9696 26.3594 16.3177 28.0112 16.3177 30.0416C16.3177 32.072 17.9696 33.724 20 33.724C22.0304 33.724 23.6822 32.072 23.6822 30.0416C23.6822 28.0112 22.0304 26.3594 20 26.3594ZM20 31.3802C19.2619 31.3802 18.6615 30.7797 18.6615 30.0416C18.6615 29.3036 19.2619 28.7031 20 28.7031C20.738 28.7031 21.3385 29.3036 21.3385 30.0416C21.3385 30.7797 20.738 31.3802 20 31.3802Z" fill="#3454D1"/>
</svg>
