<svg width="40" height="40" viewBox="0 0 40 40" fill="none" xmlns="http://www.w3.org/2000/svg">
<path d="M17.0568 8.41349C16.7332 7.85302 16.0165 7.66099 15.456 7.98459C14.8955 8.30818 14.7035 9.0249 15.0271 9.58536L15.1907 9.86872L6.04241 20.1852L2.14765 22.4339C0.0957734 23.6185 -0.609772 26.2516 0.574913 28.3035L2.13741 31.0099C3.11889 32.7099 5.09452 33.4844 6.9103 33.0267L9.92185 38.2429C10.8911 39.9217 13.0454 40.499 14.7243 39.5297C16.4031 38.5604 16.9804 36.4061 16.0111 34.7273L13.3084 30.0461L25.4103 27.5696L25.5739 27.853C25.8975 28.4135 26.6142 28.6056 27.1746 28.2819C27.7351 27.9582 27.9271 27.2416 27.6035 26.6811L17.0568 8.41349ZM6.83514 30.5528C5.90248 31.0913 4.70561 30.7706 4.1671 29.8379L2.6046 27.1316C2.06608 26.1989 2.38679 25.0021 3.31952 24.4635L6.36412 22.7057L9.87974 28.7949L6.83514 30.5528ZM13.9813 35.8992C14.3043 36.4588 14.112 37.1769 13.5524 37.4999C12.9928 37.823 12.2747 37.6306 11.9516 37.071L9.02193 31.9967L11.0517 30.8248L13.9813 35.8992ZM12.0731 27.9065L8.23029 21.2505L16.4259 12.0083L24.175 25.43L12.0731 27.9065Z" fill="#3454D1"/>
<path d="M30.625 11.7187H32.9687C33.6159 11.7187 34.1406 11.1941 34.1406 10.5469C34.1406 9.89969 33.6159 9.375 32.9687 9.375H30.625C29.9778 9.375 29.4531 9.89969 29.4531 10.5469C29.4531 11.1941 29.9778 11.7187 30.625 11.7187Z" fill="#3454D1"/>
<path d="M30.625 7.03125H32.9687C33.6159 7.03125 34.1406 6.50656 34.1406 5.85937C34.1406 5.21219 33.6159 4.6875 32.9687 4.6875H30.625C29.9778 4.6875 29.4531 5.21219 29.4531 5.85937C29.4531 6.50656 29.9778 7.03125 30.625 7.03125Z" fill="#3454D1"/>
<path d="M34.9206 19.0637H28.5143C28.0413 19.0637 27.6146 19.3481 27.4327 19.7847C27.2506 20.2213 27.349 20.7245 27.6819 21.0604L29.9107 23.3097C29.8652 23.584 29.8424 23.8622 29.8424 24.1418C29.8424 26.9419 32.1204 29.22 34.9205 29.22C37.7205 29.22 39.9986 26.9419 39.9986 24.1418C39.9986 21.3418 37.7206 19.0637 34.9206 19.0637ZM34.9206 26.8762C33.4128 26.8762 32.1862 25.6496 32.1862 24.1418C32.1862 23.857 32.2302 23.5754 32.317 23.3052C32.4506 22.8889 32.3413 22.4328 32.0335 22.1222L31.3254 21.4075H34.9206C36.4284 21.4075 37.655 22.6342 37.655 24.1419C37.655 25.6496 36.4283 26.8762 34.9206 26.8762Z" fill="#3454D1"/>
<path d="M24.0295 14.5219C23.7769 15.4059 24.5943 16.2231 25.4782 15.9706L27.7288 15.3275C28.9646 16.0348 30.3599 16.4063 31.7969 16.4063C36.4278 16.4063 40.1747 12.5491 39.9937 7.87885C39.8288 3.62143 36.3785 0.1712 32.121 0.00627831C27.4508 -0.174503 23.5938 3.57237 23.5938 8.20314C23.5938 9.64017 23.9653 11.0354 24.6726 12.2712L24.0295 14.5219ZM32.1155 2.35229C35.0861 2.51042 37.4895 4.91377 37.6478 7.88431C37.8275 11.2593 35.1335 14.0625 31.7969 14.0625C30.6365 14.0625 29.5151 13.724 28.5536 13.0834C28.2676 12.8929 27.9123 12.8375 27.5819 12.932L26.8626 13.1375L27.0681 12.4181C27.1625 12.0877 27.1071 11.7325 26.9166 11.4466C26.2761 10.485 25.9376 9.36353 25.9376 8.20314C25.9376 4.86674 28.7406 2.1726 32.1155 2.35229Z" fill="#3454D1"/>
</svg>
