<svg width="52" height="40" viewBox="0 0 52 40" fill="none" xmlns="http://www.w3.org/2000/svg">
<path d="M51.0829 38.0453L48.3665 29.0879C49.8914 26.2348 50.6946 23.0288 50.6946 19.7732C50.6946 8.8703 41.8243 0 30.9213 0C24.3189 0 18.4632 3.25326 14.8699 8.24022C7.16885 9.25441 1.20492 15.8603 1.20492 23.8338C1.20492 26.3764 1.82119 28.8814 2.99195 31.1201L0.917119 37.9612C0.754801 38.4962 0.900619 39.0767 1.29548 39.472C1.58404 39.7606 1.97123 39.916 2.36685 39.916C2.51382 39.916 2.66194 39.8945 2.80661 39.8507L9.64774 37.7759C11.8864 38.9467 14.391 39.5629 16.934 39.5629C19.2878 39.5629 21.5219 39.0422 23.5288 38.1117C25.8135 39.0361 28.3089 39.5464 30.9213 39.5464C34.1769 39.5464 37.383 38.7433 40.236 37.2183L49.1934 39.9348C49.3381 39.9785 49.4862 40 49.6332 40C50.0288 40 50.416 39.8446 50.7042 39.556C51.0994 39.1612 51.2452 38.5802 51.0829 38.0453ZM40.5008 34.1324C40.0986 34.0107 39.6646 34.061 39.3016 34.2713C36.7663 35.7402 33.8684 36.5165 30.9213 36.5165C21.6892 36.5165 14.1781 29.0054 14.1781 19.7732C14.1781 10.5407 21.6892 3.02993 30.9213 3.02993C40.1535 3.02993 47.6646 10.5411 47.6646 19.7732C47.6646 22.7203 46.8883 25.6182 45.4194 28.1535C45.2091 28.5165 45.1589 28.9509 45.2805 29.3526L47.3611 36.213L40.5008 34.1324ZM16.934 36.533C14.6988 36.533 12.5008 35.944 10.5783 34.8304C10.345 34.6953 10.0829 34.6262 9.8185 34.6262C9.67115 34.6262 9.52303 34.6477 9.37913 34.6915L4.63892 36.1289L6.07637 31.3887C6.19801 30.987 6.14774 30.553 5.93746 30.1896C4.82349 28.2671 4.23446 26.0691 4.23446 23.8338C4.23446 18.2705 7.83078 13.5318 12.8204 11.8189C11.746 14.254 11.1477 16.9451 11.1477 19.7732C11.1477 26.599 14.6243 32.6278 19.8999 36.1823C18.9482 36.411 17.9551 36.533 16.934 36.533Z" fill="#3454D1"/>
<path d="M33.1961 23.8445H24.023C23.1865 23.8445 22.5081 24.5225 22.5081 25.3594C22.5081 26.196 23.1865 26.8744 24.023 26.8744H33.1961C34.0326 26.8744 34.7107 26.196 34.7107 25.3594C34.7107 24.5225 34.0326 23.8445 33.1961 23.8445Z" fill="#3454D1"/>
<path d="M37.8196 18.2585H24.023C23.1865 18.2585 22.5081 18.937 22.5081 19.7735C22.5081 20.6104 23.1865 21.2885 24.023 21.2885H37.8196C38.6562 21.2885 39.3346 20.6104 39.3346 19.7735C39.3346 18.937 38.6562 18.2585 37.8196 18.2585Z" fill="#3454D1"/>
<path d="M37.8196 12.6731H24.023C23.1865 12.6731 22.5081 13.3515 22.5081 14.1881C22.5081 15.0246 23.1865 15.703 24.023 15.703H37.8196C38.6562 15.703 39.3346 15.0246 39.3346 14.1881C39.3346 13.3515 38.6562 12.6731 37.8196 12.6731Z" fill="#3454D1"/>
</svg>
