<svg width="38" height="40" viewBox="0 0 38 40" fill="none" xmlns="http://www.w3.org/2000/svg">
<path d="M20.1719 40V37.6562C10.4793 37.6562 2.59375 29.7006 2.59375 19.9219C2.59375 10.2293 10.4793 2.34375 20.1719 2.34375C23.9715 2.34375 27.6917 3.58852 30.7188 5.85945C30.7188 7.79789 32.2959 9.375 34.2344 9.375C36.1729 9.375 37.75 7.79789 37.75 5.85938C37.75 3.92086 36.1729 2.34375 34.2344 2.34375C33.1659 2.34375 32.208 2.82344 31.5627 3.57805C28.2384 1.26266 24.2452 0 20.1719 0C9.16172 0 0.25 8.91008 0.25 19.9219C0.25 30.8933 9.12437 40 20.1719 40ZM34.2344 4.6875C34.8805 4.6875 35.4062 5.2132 35.4062 5.85938C35.4062 6.50555 34.8805 7.03125 34.2344 7.03125C33.5882 7.03125 33.0625 6.50555 33.0625 5.85938C33.0625 5.2132 33.5882 4.6875 34.2344 4.6875Z" fill="#3454D1"/>
<path d="M20.1719 4.6875C11.7716 4.6875 4.9375 11.5216 4.9375 19.9219C4.9375 28.3221 11.7716 35.1562 20.1719 35.1562C28.5721 35.1562 35.4062 28.3221 35.4062 19.9219C35.4062 11.5216 28.5721 4.6875 20.1719 4.6875ZM33.048 19.319C31.0424 19.3652 30.4595 19.1247 30.3554 19.0707C30.3516 19.0657 30.3502 19.0631 30.3502 19.0631C30.142 18.5095 32.0887 16.1189 30.3755 14.4058C28.6624 12.6926 26.2714 14.6395 25.7185 14.4312C25.7184 14.4312 25.7083 14.4259 25.688 14.4058C25.1596 13.8773 26.5776 12.1779 25.981 10.2073C25.9101 9.97305 25.7371 9.40391 24.7624 7.87672C29.4318 9.66227 32.8059 14.0882 33.048 19.319ZM11.5365 10.3596C11.5062 10.9529 11.4909 11.5065 11.4905 12.0165C11.4892 14.5035 11.8627 15.3957 12.1438 15.8505C13.482 18.0159 16.3187 17.3648 16.8313 18.1942C17.3036 18.9584 15.168 21.2628 16.9995 23.0942C18.7126 24.8074 21.1036 22.8605 21.6565 23.0688C21.6566 23.0688 21.6667 23.0741 21.687 23.0942C22.337 23.7442 22.2724 24.6585 21.449 26.4676C20.9838 27.4889 16.7896 30.6673 15.9013 31.3295C15.2766 29.8236 14.4713 27.7476 14.2945 26.7489C14.0521 25.3784 15.8216 23.2893 13.9692 21.437C13.3405 20.8082 12.0367 20.239 7.30266 20.6574C7.07953 16.7105 8.6568 12.9627 11.5365 10.3596ZM7.64883 22.9805C11.3206 22.6702 12.2133 23.0532 12.3353 23.1185C12.8573 23.6795 11.6513 25.2623 11.9866 27.1573C12.1447 28.0509 12.6324 29.4424 13.1241 30.7098C10.43 28.9437 8.43453 26.1969 7.64883 22.9805ZM18.0595 32.6384C19.3735 31.6376 22.8999 28.9373 23.5822 27.4386C24.1216 26.2534 25.385 23.4778 23.3442 21.437C21.6315 19.7241 19.2404 21.6701 18.6872 21.4624C18.6871 21.4623 18.677 21.4571 18.6568 21.437C18.2275 21.0077 20.0193 18.8944 18.825 16.962C17.5552 14.9073 14.8031 15.6953 14.1375 14.6182C13.9145 14.2574 13.6524 12.5849 14.0126 8.60047C16.235 7.38648 18.7844 6.84437 21.387 7.08883C23.3076 9.76523 23.6716 10.6677 23.7378 10.8863C24.1011 12.0863 22.1761 14.2082 24.0308 16.0629C25.7438 17.7759 28.1344 15.8295 28.6878 16.0374C28.6879 16.0375 28.698 16.0427 28.7183 16.0629C28.7383 16.0829 28.7436 16.093 28.7436 16.093C28.9519 16.6467 27.0052 19.0373 28.7183 20.7504C29.6334 21.6657 31.6398 21.688 32.9441 21.6656C32.8457 22.3905 32.6873 23.0967 32.473 23.7784C29.396 22.5367 26.0312 24.8098 26.0312 28.125C26.0312 29.1358 26.3552 30.0999 26.9344 30.8916C24.9671 32.1087 22.6503 32.8125 20.1719 32.8125C19.4525 32.8125 18.747 32.7523 18.0595 32.6384ZM28.8085 29.483C28.5302 29.0919 28.375 28.6195 28.375 28.125C28.375 26.4844 30.0304 25.3425 31.5683 25.9404C30.8592 27.2776 29.9222 28.4761 28.8085 29.483Z" fill="#3454D1"/>
</svg>
