<svg width="46" height="40" viewBox="0 0 46 40" fill="none" xmlns="http://www.w3.org/2000/svg">
<path d="M33.9132 0.39622C33.6616 0.142555 33.3185 0 32.9611 0C32.6036 0 32.2609 0.142905 32.009 0.396569L28.0454 4.39091C27.783 4.65506 27.4346 4.80076 27.0649 4.80076C26.7833 4.80076 20.0465 4.80076 18.8659 4.80076C18.4959 4.80076 18.1479 4.65506 17.8831 4.38882L13.989 0.483919C13.7374 0.231303 13.3954 0.0894465 13.039 0.0894465C13.0386 0.0894465 13.0379 0.0894465 13.0376 0.0894465C12.6805 0.0897959 12.3384 0.232701 12.0868 0.486016L0.491302 12.1672C-0.0289553 12.6913 -0.0279071 13.5372 0.493747 14.0602L3.81934 17.3921C4.44931 18.027 4.79626 18.8715 4.79626 19.7705C4.79626 20.9336 5.1226 22.0461 5.72916 23.0045C4.40913 24.6097 4.49438 27.0003 5.98632 28.503C6.70853 29.2308 7.65436 29.6515 8.66867 29.7011C8.71514 30.6822 9.10926 31.6494 9.85139 32.3967C10.5736 33.1245 11.5194 33.5452 12.5341 33.5948C12.5802 34.576 12.9747 35.5431 13.7165 36.2905C14.8845 37.4672 16.5606 37.7639 17.976 37.2555C18.171 37.8187 18.491 38.347 18.9368 38.796C20.5298 40.4012 23.1129 40.4015 24.7061 38.796L25.2725 38.2258C25.6265 37.869 25.9007 37.462 26.0964 37.0277C27.6809 38.4277 30.1232 38.3966 31.6672 36.8411C32.4094 36.0937 32.8035 35.1266 32.8496 34.1455C33.8639 34.0962 34.8101 33.6752 35.5323 32.9474C36.2744 32.2 36.6686 31.2329 36.715 30.2518C37.729 30.2025 38.6752 29.7815 39.3974 29.054C40.8809 27.5596 40.9742 25.1869 39.6772 23.5817C40.6224 22.2502 41.1342 20.6607 41.1342 18.9917C41.1342 18.6007 41.2911 18.2184 41.5647 17.9428L45.5087 13.968C46.0279 13.4449 46.0279 12.6008 45.5087 12.0777L33.9132 0.39622ZM7.8909 24.6093L9.82343 22.6625C10.3661 22.1156 11.241 22.1153 11.7839 22.6625C12.3325 23.2149 12.3325 24.1135 11.7839 24.6656L9.85139 26.6128C9.30842 27.1596 8.43387 27.1596 7.8909 26.6128C7.34269 26.0604 7.34269 25.1617 7.8909 24.6093ZM11.756 28.503L15.621 24.6093C16.164 24.0625 17.0389 24.0621 17.5819 24.6093C18.1301 25.1617 18.1301 26.0604 17.5819 26.6128C16.2042 28.0006 16.1308 28.0743 13.7165 30.5065C13.1735 31.0529 12.2989 31.0533 11.756 30.5061C11.2078 29.9541 11.2078 29.0554 11.756 28.503ZM15.621 34.3999C15.0728 33.8478 15.0728 32.9491 15.621 32.3967L17.5536 30.4499C18.0965 29.9031 18.9714 29.9031 19.5144 30.4499C20.0207 30.96 20.0584 31.7647 19.6294 32.3202C19.5113 32.4292 19.687 32.2538 17.5819 34.3999C17.0389 34.947 16.1644 34.9474 15.621 34.3999ZM23.3683 36.3352L22.8019 36.9054C22.2589 37.4526 21.3844 37.4526 20.8414 36.9054C20.3418 36.4023 20.2988 35.6123 20.7097 35.0581C21.4462 34.3136 21.4102 34.3576 21.5385 34.2171C22.0863 33.7863 22.8686 33.8289 23.3683 34.3321C23.9165 34.8845 23.9161 35.7831 23.3683 36.3352ZM37.4931 27.1634C36.9502 27.7102 36.0753 27.7102 35.5323 27.1634L33.0337 24.6463C32.5117 24.1205 31.662 24.1174 31.1362 24.6394C30.6103 25.1614 30.6072 26.0108 31.1292 26.5366L33.6281 29.0537C34.1763 29.6061 34.1763 30.5047 33.6281 31.0568C33.0851 31.604 32.2102 31.604 31.6672 31.0568L29.1687 28.5397C28.6463 28.0139 27.7969 28.0107 27.2711 28.5327C26.7452 29.0547 26.7421 29.9045 27.2641 30.4303L29.7627 32.9474C30.3112 33.4998 30.3112 34.3985 29.7627 34.9505C29.22 35.4977 28.3451 35.4977 27.8018 34.9505C25.1715 32.3223 25.2977 32.38 25.0328 32.2199C24.3494 31.6316 23.5028 31.2905 22.6007 31.2444C22.5521 30.2671 22.158 29.3042 21.419 28.5593C21.0399 28.1777 20.5989 27.8807 20.1192 27.6774C21.0291 26.111 20.8184 24.0608 19.4861 22.7191C18.1206 21.3435 16.078 21.1768 14.555 22.0688C14.3576 21.5975 14.0693 21.1555 13.6885 20.7722C12.0952 19.1671 9.51247 19.1671 7.91885 20.7722L7.70502 20.9878C7.55757 20.6048 7.47966 20.1936 7.47966 19.7705C7.47966 18.1583 6.85598 16.6426 5.72113 15.499L3.33647 13.1098L13.0411 3.33328L15.9809 6.28117C16.6378 6.94293 17.4802 7.34998 18.3904 7.4555L12.3947 14.65C11.9205 15.2195 11.9974 16.0654 12.5666 16.5396C13.9429 17.6866 15.6836 18.2293 17.468 18.0671C19.252 17.905 20.8666 17.0577 22.0151 15.6793C22.4955 15.1028 23.3036 14.9292 23.9811 15.2562C25.3637 15.9243 26.8833 16.1681 28.378 15.9774L37.4931 25.16C38.0413 25.7124 38.0413 26.611 37.4931 27.1634ZM39.6605 16.0521C38.8803 16.8379 38.4508 17.882 38.4508 18.9917C38.4508 19.928 38.208 20.826 37.7545 21.6143L31.2287 15.0406C32.5628 14.2985 33.6567 13.1829 34.3824 11.7999C34.7266 11.1438 34.4736 10.3328 33.8174 9.98866C33.1613 9.64415 32.3503 9.89711 32.0062 10.5533C31.278 11.9411 30.0282 12.8674 28.6282 13.2105C28.5667 13.2199 28.5055 13.2332 28.4458 13.2514C27.37 13.4739 26.2166 13.3562 25.1485 12.8401C23.3599 11.976 21.224 12.4373 19.9522 13.9634C19.2639 14.7891 18.2953 15.2974 17.2251 15.3949C16.6168 15.4501 16.0173 15.3687 15.461 15.1622L21.6723 7.70777C22.159 7.55928 22.6635 7.47262 23.1723 7.47262H27.0649C28.1551 7.47262 29.1795 7.05684 29.9499 6.28117L32.9614 3.24628L42.6664 13.0228L39.6605 16.0521Z" fill="#3454D1"/>
</svg>
