<svg width="48" height="40" viewBox="0 0 48 40" fill="none" xmlns="http://www.w3.org/2000/svg">
<path d="M46.8909 13.9466C47.2921 13.441 47.2507 12.6648 46.8065 12.1989L35.8546 0.43267C35.5978 0.156742 35.2378 0 34.8608 0H14.0433C13.6851 0 13.3414 0.141629 13.0871 0.394028L1.23003 12.1603C0.731295 12.6397 0.697177 13.4869 1.15419 14.006L22.9674 39.5296C23.4786 40.1569 24.5205 40.1567 25.0317 39.5296L46.8448 14.0059C46.8604 13.9864 46.8759 13.9667 46.8909 13.9466ZM30.3671 11.7663H17.6319L23.9995 3.5705L30.3671 11.7663ZM31.2128 14.4816L23.9996 34.6212L16.7863 14.4816H31.2128ZM13.9021 14.4816L20.2286 32.1456L5.13257 14.4816H13.9021ZM34.0969 14.4816H42.8664L27.7704 32.1456L34.0969 14.4816ZM42.6942 11.7663H33.8055L26.7736 2.7153H34.2698L42.6942 11.7663ZM14.6026 2.7153H21.2254L14.1934 11.7663H5.48189L14.6026 2.7153Z" fill="#3454D1"/>
</svg>
